<svg width="32" height="26" viewBox="0 0 32 26" xmlns="http://www.w3.org/2000/svg">
  <path d="M10.063 26.002c12.076 0 18.68-10.005 18.68-18.68 0-.285 0-.567-.019-.85A13.358 13.358 0 0032 3.076c-1.198.53-2.47.879-3.77 1.032a6.588 6.588 0 002.886-3.63 13.157 13.157 0 01-4.17 1.593 6.572 6.572 0 00-11.188 5.988 18.64 18.64 0 01-13.53-6.86A6.57 6.57 0 004.26 9.962a6.516 6.516 0 01-2.98-.822v.084a6.568 6.568 0 005.267 6.435 6.555 6.555 0 01-2.964.113 6.573 6.573 0 006.133 4.56A13.174 13.174 0 010 23.051a18.587 18.587 0 0010.063 2.945" fill="#76a9b9" fill-rule="nonzero"/>
</svg>
