<svg width="29" height="32" viewBox="0 0 29 32" xmlns="http://www.w3.org/2000/svg">
  <path d="M21.396 26.68c3.99-2.537 6.646-7.084 6.646-12.265 0-7.959-6.27-14.415-14-14.415-7.734 0-14 6.456-14 14.416 0 7.964 6.266 14.416 14 14.416 1.137 0 2.24-.143 3.3-.407 1.326 2.455 3.354 4.194 7.65 3.364v-2.446c0 .001-2.754-.703-3.596-2.663zM21.3 16.324c0 2.407-.756 4.592-1.981 6.204-1.538-1.665-3.95-3.032-7.01-2.859v2.834s2.078.084 3.496 2.564a5.731 5.731 0 01-1.657.245c-3.95 0-7.148-4.025-7.148-8.992v-3.71c0-4.967 3.2-8.993 7.148-8.993 3.95 0 7.152 4.027 7.152 8.994v3.713z" fill="#76a9b9" fill-rule="nonzero"/>
</svg>
