<svg width="32" height="23" viewBox="0 0 32 23" xmlns="http://www.w3.org/2000/svg">
  <g fill="none" fill-rule="evenodd">
    <path d="M31.199 3.483A3.99 3.99 0 0028.382.666C25.897 0 15.932 0 15.932 0S5.968 0 3.483.666A3.99 3.99 0 00.666 3.483C0 5.968 0 11.153 0 11.153s0 5.184.666 7.67a3.99 3.99 0 002.817 2.816c2.485.666 12.45.666 12.45.666s9.964 0 12.449-.666a3.99 3.99 0 002.817-2.817c.666-2.485.666-7.67.666-7.67s0-5.184-.666-7.67" fill="#76a9b9"/>
    <path fill="#FFFFFE" d="M12.746 15.932v-9.56l8.278 4.78-8.278 4.78"/>
  </g>
</svg>
